<?xml version="1.0" encoding="UTF-8" standalone="no"?>
<!-- Created with Inkscape (http://www.inkscape.org/) -->

<svg
   xmlns:dc="http://purl.org/dc/elements/1.1/"
   xmlns:cc="http://creativecommons.org/ns#"
   xmlns:rdf="http://www.w3.org/1999/02/22-rdf-syntax-ns#"
   xmlns:svg="http://www.w3.org/2000/svg"
   xmlns="http://www.w3.org/2000/svg"
   xmlns:sodipodi="http://sodipodi.sourceforge.net/DTD/sodipodi-0.dtd"
   xmlns:inkscape="http://www.inkscape.org/namespaces/inkscape"
   width="210mm"
   height="297mm"
   viewBox="0 0 210 297"
   version="1.1"
   id="svg856"
   inkscape:version="0.92.3 (2405546, 2018-03-11)"
   sodipodi:docname="DiscordQQ.svg"
   inkscape:export-filename="D:\Coding\GitHub\DiscordQQRelayBot\Icons\DiscordQQ2.png"
   inkscape:export-xdpi="34.834286"
   inkscape:export-ydpi="34.834286">
  <defs
     id="defs850" />
  <sodipodi:namedview
     id="base"
     pagecolor="#ffffff"
     bordercolor="#666666"
     borderopacity="1.0"
     inkscape:pageopacity="0.0"
     inkscape:pageshadow="2"
     inkscape:zoom="0.49497475"
     inkscape:cx="445.99224"
     inkscape:cy="583.60396"
     inkscape:document-units="mm"
     inkscape:current-layer="layer1"
     showgrid="false"
     inkscape:window-width="1366"
     inkscape:window-height="746"
     inkscape:window-x="-8"
     inkscape:window-y="-8"
     inkscape:window-maximized="1" />
  <metadata
     id="metadata853">
    <rdf:RDF>
      <cc:Work
         rdf:about="">
        <dc:format>image/svg+xml</dc:format>
        <dc:type
           rdf:resource="http://purl.org/dc/dcmitype/StillImage" />
        <dc:title />
      </cc:Work>
    </rdf:RDF>
  </metadata>
  <g
     inkscape:label="Layer 1"
     inkscape:groupmode="layer"
     id="layer1">
    <path
       id="path854"
       d="m 104.81793,231.3775 c -16.347037,0 -31.288437,-5.46635 -40.971719,-13.63989 -4.893703,1.50976 -11.140977,3.8525 -15.097588,6.76789 -3.38394,2.4989 -2.967456,5.04988 -2.342725,6.03902 2.655088,4.52928 45.917486,2.91541 58.412032,1.50976 z m 0,0 z"
       style="fill:#faab07;fill-opacity:1;fill-rule:nonzero;stroke:none;stroke-width:0.6507628"
       inkscape:connector-curvature="0" />
    <path
       id="path856"
       d="m 104.81793,231.3775 c 16.29498,0 31.28846,-5.46635 40.91966,-13.63989 4.8937,1.50976 11.14097,3.8525 15.09759,6.76789 3.38394,2.4989 2.96746,5.04988 2.34273,6.03902 -2.65509,4.52928 -45.91749,2.91541 -58.35998,1.50976 z m 0,0 z"
       style="fill:#faab07;fill-opacity:1;fill-rule:nonzero;stroke:none;stroke-width:0.6507628"
       inkscape:connector-curvature="0" />
    <path
       id="path858"
       d="m 104.86999,133.60764 c 26.96741,-0.20832 48.57257,-5.41431 55.86106,-7.39262 1.77008,-0.46854 2.65511,-1.35357 2.65511,-1.35357 0.0521,-0.20826 0.15618,-4.3731 0.15618,-6.50759 -3e-5,-35.973898 -16.97179,-72.103983 -58.77648,-72.103983 -41.752621,0 -58.724392,36.130085 -58.724392,72.103983 0,2.13449 0.104114,6.29934 0.156183,6.50759 0,0 0.728851,0.83296 2.134489,1.19738 6.767885,1.87419 28.737473,7.34056 56.38166,7.54881 z m 0,0 z"
       style="fill:#000000;fill-opacity:1;fill-rule:nonzero;stroke:none;stroke-width:0.6507628"
       inkscape:connector-curvature="0" />
    <path
       id="path860"
       d="m 178.11931,163.54247 c -1.71798,-5.36222 -3.95662,-11.60949 -6.29934,-17.64854 0,0 -1.30151,-0.15619 -1.97831,0.0521 -20.72013,5.98697 -45.81334,9.83945 -64.97167,9.6312 h -0.15618 c -19.054185,0.20833 -43.991228,-3.59216 -64.607245,-9.52709 -0.780908,-0.26029 -2.342726,-0.15618 -2.342726,-0.15618 -2.342729,6.03904 -4.581342,12.28631 -6.299341,17.64854 -7.913213,25.66589 -5.362247,36.23423 -3.383939,36.49452 4.216911,0.5206 16.399098,-19.3145 16.399098,-19.3145 0,20.14747 18.169166,51.01943 59.765623,51.33179 0.15617,0 0.93708,0 1.09327,0 41.59644,-0.31236 59.7656,-31.18432 59.7656,-51.33179 0,0 12.18221,19.8351 16.39909,19.3145 1.97832,-0.26029 4.52929,-10.82863 -3.38393,-36.49452 z"
       style="fill:#000000;fill-opacity:1;fill-rule:nonzero;stroke:none;stroke-width:0.6507628"
       inkscape:connector-curvature="0" />
    <path
       id="path870"
       d="m 104.86999,154.37981 h -0.15618 c -13.015151,0.15618 -28.789526,-1.5618 -44.09535,-4.58133 -1.301517,7.60086 -2.082429,17.07588 -1.405637,28.4251 1.718001,28.68543 18.741831,46.75047 45.032457,47.01076 h 1.09327 c 26.29062,-0.26029 43.31445,-18.32533 45.03244,-47.01076 0.6768,-11.34922 -0.10404,-20.82424 -1.40562,-28.4251 -15.30582,3.01953 -31.08021,4.73751 -44.09537,4.58133 z"
       style="fill:#ffffff;fill-opacity:1;fill-rule:nonzero;stroke:none;stroke-width:0.6507628"
       inkscape:connector-curvature="0" />
    <path
       id="path872"
       d="m 67.854882,151.98502 v 28.21688 c 0,0 12.911033,2.60304 25.87413,0.83295 v -26.08238 c -8.225579,-0.46854 -17.075882,-1.45768 -25.87413,-2.96745 z"
       style="fill:#eb1923;fill-opacity:1;fill-rule:nonzero;stroke:none;stroke-width:0.6507628"
       inkscape:connector-curvature="0" />
    <path
       id="path874"
       d="m 163.38616,124.86145 c 0,0 -25.14531,7.96527 -58.51617,8.1735 h -0.15618 c -33.318808,-0.20823 -58.464099,-8.12145 -58.516159,-8.1735 l -8.43382,21.03248 c 21.084556,6.35141 47.166936,10.46419 66.949969,10.20387 h 0.15618 c 19.78304,0.26032 45.86542,-3.85246 66.94999,-10.20387 z m 0,0 z"
       style="fill:#eb1923;fill-opacity:1;fill-rule:nonzero;stroke:none;stroke-width:0.6507628"
       inkscape:connector-curvature="0" />
    <path
       d="m 125.46937,123.1776 c 0,0 -2.6571,-3.1737 -4.8713,-5.90459 9.66877,-2.73088 13.35915,-8.70928 13.35915,-8.70928 -3.02611,1.99281 -5.90461,3.39514 -8.48785,4.35464 -3.69038,1.54995 -7.23314,2.50945 -10.7021,3.17372 -7.08552,1.32853 -13.58057,0.9595 -19.116131,-0.0738 -4.207028,-0.81189 -7.823596,-1.919 -10.8497,-3.17373 -1.697577,-0.66426 -3.542762,-1.47615 -5.387943,-2.50945 -0.221417,-0.14762 -0.442848,-0.22143 -0.664271,-0.36904 -0.147619,-0.0738 -0.221417,-0.14762 -0.29523,-0.14762 -1.328531,-0.73808 -2.066611,-1.25472 -2.066611,-1.25472 0,0 3.542759,5.83078 12.916311,8.63546 -2.214225,2.8047 -4.945098,6.05223 -4.945098,6.05223 -16.311456,-0.51667 -22.511284,-11.14494 -22.511284,-11.14494 0,-23.544583 10.628275,-42.660719 10.628275,-42.660719 10.628274,-7.897401 20.666094,-7.675978 20.666094,-7.675978 l 0.738077,0.885689 c -13.28535,3.764182 -19.33756,9.594972 -19.33756,9.594972 0,0 1.623764,-0.885689 4.354642,-2.066608 7.897397,-3.468954 14.171038,-4.354643 16.754298,-4.649874 0.442843,-0.0738 0.811879,-0.147618 1.254729,-0.147618 4.502252,-0.59046 9.594972,-0.738075 14.909102,-0.147619 7.01171,0.811884 14.54008,2.878492 22.21604,7.011711 0,0 -5.83078,-5.535561 -18.37805,-9.299743 l 1.03331,-1.180927 c 0,0 10.11161,-0.221417 20.66608,7.675977 0,0 10.62827,19.116137 10.62827,42.660717 0,-0.0738 -6.1998,10.55448 -22.51125,11.07112 z"
       id="path4"
       inkscape:connector-curvature="0"
       style="fill:#ffffff;stroke-width:0.73807472" />
    <path
       d="m 91.14888,89.004749 c -4.207026,0 -7.528363,3.616566 -7.528363,8.118821 0,4.50225 3.395146,8.11882 7.528363,8.11882 4.207028,0 7.528364,-3.61657 7.528364,-8.11882 0.07379,-4.502255 -3.321336,-8.118821 -7.528364,-8.118821 z"
       id="path8"
       inkscape:connector-curvature="0"
       style="fill:#000000;fill-opacity:1;stroke-width:0.73807472" />
    <path
       id="path868"
       d="m 110.98243,98.915 c 0.47622,-0.89954 3.96855,-5.714721 11.11195,-3.96856 1.90491,0.47623 2.80445,1.16412 2.9632,1.42868 0.26456,0.3704 0.37038,0.95246 0.0529,1.69326 -0.52915,1.48159 -1.64033,1.42867 -2.27531,1.16411 -0.42331,-0.21167 -5.39724,-3.54525 -10.00075,1.42867 -0.3175,0.3704 -0.89955,0.47623 -1.4287,0.0529 -0.52911,-0.3704 -0.74076,-1.21702 -0.42328,-1.79907 z"
       style="fill:#000000;fill-opacity:1;fill-rule:nonzero;stroke:none;stroke-width:0.66143137"
       inkscape:connector-curvature="0" />
  </g>
</svg>
